<?xml version="1.0" encoding="UTF-8"?>
<svg width="32px" height="32px" viewBox="0 0 32 32" version="1.1" xmlns="http://www.w3.org/2000/svg" xmlns:xlink="http://www.w3.org/1999/xlink">
    <!-- Generator: Sketch 52.6 (67491) - http://www.bohemiancoding.com/sketch -->
    <title>Icon/Logo/Suite</title>
    <desc>Created with Sketch.</desc>
    <g id="Icon/Logo/Suite" stroke="none" stroke-width="1" fill="none" fill-rule="evenodd">
        <rect id="Rectangle-3" x="0" y="0" width="32" height="32"></rect>
        <g id="Group" transform="translate(3.000000, 3.000000)">
            <path d="M12.9923333,0 C20.1673333,0 25.984,5.817 25.984,12.992 C25.984,20.1676667 20.1673333,25.9843333 12.9923333,25.9843333 C5.81666667,25.9843333 0,20.1676667 0,12.992 C0,5.817 5.81666667,0 12.9923333,0" id="Fill-1" fill="#FF9900"></path>
            <path d="M12.9923333,0 C20.1673333,0 25.984,5.817 25.984,12.992 C25.984,20.1676667 20.1673333,25.9843333 12.9923333,25.9843333 C5.81666667,25.9843333 0,20.1676667 0,12.992 C0,5.817 5.81666667,0 12.9923333,0 Z" id="Stroke-2" stroke="#FF9900" stroke-width="0.283"></path>
            <path d="M3.244,7.58566667 C3.244,6.782 3.89533333,6.13033333 4.69933333,6.13033333 C5.503,6.13033333 6.15433333,6.782 6.15433333,7.58566667 C6.15433333,8.38933333 5.503,9.04066667 4.69933333,9.04066667 C3.89533333,9.04066667 3.244,8.38933333 3.244,7.58566667 Z M6.79866667,6.675 C6.91966667,6.95366667 6.986,7.26266667 6.986,7.58566667 C6.986,8.84866667 5.96233333,9.87233333 4.69933333,9.87233333 C3.43633333,9.87233333 2.41266667,8.84866667 2.41266667,7.58566667 C2.41266667,6.32266667 3.43633333,5.29866667 4.69933333,5.29866667 C5.16866667,5.29866667 5.60433333,5.441 5.96733333,5.68366667 L5.96733333,5.091 C5.96733333,4.00033333 6.85166667,3.116 7.94233333,3.116 L13.534,3.11633333 L13.534,6.44233333 L10.2913333,6.44233333 C10.2223333,6.44233333 10.1666667,6.498 10.1666667,6.567 L10.1666667,8.604 C10.1666667,8.673 10.2223333,8.72866667 10.2913333,8.72866667 L13.534,8.72866667 L13.534,11.5353333 L10.3743333,11.5353333 C10.2596667,11.5353333 10.1666667,11.6286667 10.1666667,11.743 L10.1666667,18.915 L12.7026667,18.915 L12.7026667,13.822 C12.7026667,13.4203333 13.0283333,13.0943333 13.4303333,13.0943333 L14.366,13.0943333 C14.7676667,13.0943333 15.0933333,13.4203333 15.0933333,13.822 L15.0933333,18.915 L17.6296667,18.915 L17.6296667,13.822 C17.6296667,13.4203333 17.955,13.0943333 18.357,13.0943333 L19.2923333,13.0943333 C19.6943333,13.0943333 20.0203333,13.4203333 20.0203333,13.822 L20.0203333,18.915 L22.5563333,18.915 L22.5563333,11.743 C22.5563333,11.6286667 22.4633333,11.5353333 22.3483333,11.5353333 L14.2616667,11.5353333 L14.262,10.7036667 L22.66,10.7036667 C23.062,10.7036667 23.3876667,11.0296667 23.3876667,11.4313333 L23.3876667,19.7466667 L19.188,19.7466667 L19.188,14.0506667 C19.188,13.9816667 19.1326667,13.926 19.0636667,13.926 L18.586,13.926 C18.517,13.926 18.461,13.9816667 18.461,14.0506667 L18.461,19.7466667 L14.2616667,19.7466667 L14.2616667,14.0506667 C14.2616667,13.9816667 14.2063333,13.926 14.1373333,13.926 L13.6586667,13.926 C13.5896667,13.926 13.534,13.9816667 13.534,14.0506667 L13.534,19.7466667 L4.15866667,19.7466667 L4.15866667,18.915 L5.96733333,18.915 L5.96733333,11.743 C5.96733333,11.6286667 5.87433333,11.5353333 5.75933333,11.5353333 L3.43133333,11.5353333 L3.43133333,19.7466667 L2.59966667,19.7466667 L2.59966667,10.7036667 L6.07133333,10.7036667 C6.47333333,10.7036667 6.79866667,11.0296667 6.79866667,11.4313333 L6.79866667,18.915 L9.335,18.915 L9.335,11.4313333 C9.335,11.0296667 9.66066667,10.7036667 10.0623333,10.7036667 L12.7026667,10.7036667 L12.7026667,9.56066667 L10.0623333,9.56066667 C9.66066667,9.56066667 9.335,9.23466667 9.335,8.833 L9.335,6.33833333 C9.335,5.93633333 9.66066667,5.61066667 10.0623333,5.61066667 L12.7026667,5.61066667 L12.7026667,3.94766667 L7.942,3.94766667 C7.311,3.94766667 6.79866667,4.45966667 6.79866667,5.091 L6.79866667,6.675 Z" id="Fill-3" fill="#FFFFFE"></path>
        </g>
    </g>
</svg>